<svg width="1450" height="389" viewBox="0 0 1450 389" fill="none" xmlns="http://www.w3.org/2000/svg">
<g clip-path="url(#clip0_52_296)">
<path d="M119.264 60.2311C165.304 60.2311 198.45 71.708 219.187 89.1916C234.391 102.063 242.234 120.887 242.234 143.895C242.234 168.243 233.048 188.944 215.964 204.122C189.264 228.041 166.701 232.171 117.437 232.171C105.457 232.171 98.0971 231.688 85.6335 230.776V313.046C85.6335 347.959 91.5967 353.966 128.934 355.789V364.531H0V355.789C35.9403 353.054 38.6801 347.959 38.6801 308.433V111.234C38.6801 77.232 34.06 71.708 0 68.9192V60.1774H119.264V60.2311ZM85.6335 212.381C96.2168 213.293 104.49 213.775 113.73 213.775C164.39 213.775 192.004 187.55 192.004 146.201C192.004 95.6272 164.39 77.232 101.75 77.232C88.3733 77.232 85.6335 81.3615 85.6335 93.8038V212.435V212.381Z" fill="white"/>
<path d="M479.848 364.584H231.651V355.842C267.107 353.536 271.728 347.583 271.728 312.187V111.716C271.728 77.714 266.194 70.7957 231.651 68.9723V60.2305H475.711L477.538 125.982H466.041C459.111 84.5788 448.528 77.714 395.128 77.714H334.798C321.904 77.714 318.681 79.5375 318.681 94.2859V195.433H388.198C427.791 195.433 434.721 187.603 440.255 151.295H450.838V258.878H440.255C434.721 220.264 427.845 214.311 388.198 214.311H318.681V326.024C318.681 345.331 331.145 347.637 365.204 347.637H381.805C447.668 347.637 467.438 335.677 488.175 286.981H501.068L479.902 364.691L479.848 364.584Z" fill="white"/>
<path d="M772.581 353.589C761.944 351.068 754.423 346.134 745.129 334.228L652.995 217.957C683.026 213.398 704.354 203.959 717.946 190.337C717.946 190.337 718.053 190.23 718.268 189.962C720.686 187.548 722.888 184.92 724.715 182.239C724.876 182.078 725.037 181.917 725.145 181.703C732.719 170.655 736.373 157.569 736.373 142.606C736.373 141.801 736.373 140.943 736.373 140.085C734.492 136.975 732.505 133.113 730.624 128.394C726.326 117.775 723.855 107.478 723.264 97.7707C720.578 93.8557 717.409 90.3697 713.863 87.42C713.272 86.9373 712.681 86.4546 712.036 86.0256C692.105 70.7409 660.033 60.3365 617.646 60.3365H492.419V69.0247C527.822 71.7599 531.529 77.2838 531.529 111.339V307.627C531.529 348.065 526.909 353.16 492.419 355.948V364.636H619.526V355.948C584.016 353.642 578.536 348.118 578.536 313.151V223.963L604.323 223.052L713.917 364.636H788.591V355.948C782.466 355.412 777.363 354.768 772.796 353.696L772.581 353.589ZM578.321 206.909V96.5908C578.321 80.448 586.165 77.2302 601.852 77.2302C658.959 77.2302 686.088 97.5025 686.088 138.905C686.088 161.913 676.472 182.132 659.872 191.302C638.705 202.779 622.535 205.997 578.321 206.909Z" fill="white"/>
<path d="M835.973 57.6025C851.123 65.0035 899.473 93.0523 947.985 190.928C979.144 192.001 1008.26 194.95 1034.21 180.685C1034.21 180.685 1045.22 174.195 1050.81 168.403C1088.84 175.59 1104.85 153.709 1074.02 181.114C1006.86 240.805 861.653 147.326 801.967 247.187C783.809 277.649 761.675 373.54 850.855 387.806V388.396C779.511 379.386 747.708 332.245 742.282 300.817C731.483 238.552 782.681 175.59 887.977 189.534C890.77 189.909 894.047 190.66 894.047 190.66C883.249 154.513 817.815 56.1009 778.329 49.8261C794.983 48.4853 808.038 50.1479 813.679 50.8987C827.27 52.7221 832.75 56.0472 835.973 57.6562V57.6025Z" fill="white"/>
<path d="M1096.8 61.0887C1096.21 68.0606 1094 74.4963 1090.78 80.342C1090.78 80.342 1090.78 80.5566 1090.67 80.6102C1081.86 96.4848 1065.53 107.801 1052.69 113.7C960.825 155.747 882.767 34.8097 784.508 38.8856C740.134 40.6554 721.17 65.54 723.158 97.6647C723.748 107.372 726.22 117.669 730.517 128.288C732.398 133.007 734.332 136.815 736.266 139.979C742.874 151.081 748.514 152.743 748.514 152.743C747.386 154.781 733.795 171.192 725.092 181.65C724.984 181.865 724.823 182.026 724.662 182.187C721.492 185.994 719.075 188.89 718.215 189.909C718 190.177 717.893 190.285 717.893 190.285C689.581 159.286 693.073 118.42 711.876 85.9196C724.877 63.502 745.184 44.9995 767.425 36.3113C816.044 17.5406 854.67 16.3071 907.586 43.0152C959.643 69.1869 1061.82 114.666 1089.49 79.1622C1089.76 78.8404 1089.97 78.5186 1090.24 78.1432C1093.3 73.6918 1095.29 68.2215 1096.1 61.4641V61.0887C1096.1 60.4451 1096.21 59.4261 1096.21 59.1043C1096.31 55.8865 1095.99 53.0441 1095.24 50.5771C1088.9 26.9796 1050.27 33.4689 1038.78 40.8163C1024.86 49.6653 1022.87 56.7982 1022.87 56.7982L994.724 19.9004C1001.76 -3.3753 1062.04 -11.4199 1085.94 24.7271C1092.02 33.898 1095.29 42.5325 1096.47 50.5771C1096.96 54.2239 1097.07 57.7099 1096.8 61.0887Z" fill="white"/>
<path d="M953.679 213.13C1001.38 313.258 951.584 357.557 904.255 378.634C884.377 387.483 865.521 390.379 847.739 387.966L849.189 387.483C884.431 392.524 963.403 367.64 897.486 204.066C903.717 203.047 949.489 209.268 953.733 213.13H953.679Z" fill="white"/>
<path d="M1151.11 78.5173C1156.48 73.6369 1168.78 70.7408 1188.07 69.7755V61.0873H1096.1V61.4628C1095.29 68.2202 1093.3 73.6905 1090.24 78.0882C1089.97 78.5173 1089.76 78.8391 1089.49 79.1608C1089.92 79.5899 1090.3 80.0726 1090.67 80.6089C1094.38 86.0792 1096.21 96.5908 1096.21 111.983V313.312C1096.21 331.01 1093.63 342.38 1088.42 347.475C1083.2 352.516 1070.96 355.305 1051.67 355.948V364.636H1188.07V355.948C1169.11 355.305 1156.86 352.355 1151.32 346.992C1145.84 341.629 1143.05 330.42 1143.05 313.312V111.983C1143.05 94.5528 1145.74 83.3977 1151.11 78.5173Z" fill="white"/>
<path d="M1449.43 139.013H1438.42C1433.53 113.967 1426.6 97.8779 1417.73 90.8523C1408.87 83.8267 1392.16 80.2871 1367.66 80.2871H1340.59V313.687C1340.59 331.117 1343.17 342.273 1348.38 347.153C1353.59 352.033 1365.68 354.929 1384.64 355.841V364.529H1250.49V355.841C1269.78 354.608 1281.82 351.39 1286.54 346.188C1291.27 340.985 1293.69 328.329 1293.69 308.11V80.3407H1266.13C1241.31 80.3407 1224.55 83.934 1215.84 91.1205C1207.14 98.307 1200.48 114.289 1195.86 139.013H1184.85L1188.07 61.0873H1446.21L1449.43 139.013Z" fill="white"/>
</g>
<defs>
<clipPath id="clip0_52_296">
<rect width="1449.43" height="388.822" fill="white"/>
</clipPath>
</defs>
</svg>
